HIERARCHY
ROOT hip
{
	OFFSET 0.000000 0.000000 0.000000
	CHANNELS 6 Xposition Yposition Zposition Xrotation Zrotation Yrotation 
	JOINT abdomen
	{
		OFFSET 0.000000 3.422050 0.000000
		CHANNELS 3 Xrotation Zrotation Yrotation 
		JOINT chest
		{
			OFFSET 0.000000 8.486693 -0.684411
			CHANNELS 3 Xrotation Zrotation Yrotation 
			JOINT neck
			{
				OFFSET 0.000000 10.266162 -0.273764
				CHANNELS 3 Xrotation Zrotation Yrotation 
				JOINT head
				{
					OFFSET 0.000000 3.148285 0.000000
					CHANNELS 3 Xrotation Zrotation Yrotation 
					End Site
					{
						OFFSET 0.000000 3.148289 0.000000
					}
				}
			}
			JOINT lCollar
			{
				OFFSET 3.422053 6.707223 -0.821293
				CHANNELS 3 Yrotation Zrotation Xrotation 
				JOINT lShldr
				{
					OFFSET 3.285171 0.000000 0.000000
					CHANNELS 3 Zrotation Yrotation Xrotation 
					JOINT lForeArm
					{
						OFFSET 10.129278 0.000000 0.000000
						CHANNELS 3 Yrotation Zrotation Xrotation 
						JOINT lHand
						{
							OFFSET 8.486692 0.000000 0.000000
							CHANNELS 3 Zrotation Yrotation Xrotation 
							End Site
							{
								OFFSET 4.106464 0.000000 0.000000
							}
						}
					}
				}
			}
			JOINT rCollar
			{
				OFFSET -3.558935 6.707223 -0.821293
				CHANNELS 3 Yrotation Zrotation Xrotation 
				JOINT rShldr
				{
					OFFSET -3.148289 0.000000 0.000000
					CHANNELS 3 Zrotation Yrotation Xrotation 
					JOINT rForeArm
					{
						OFFSET -10.266159 0.000000 0.000000
						CHANNELS 3 Yrotation Zrotation Xrotation 
						JOINT rHand
						{
							OFFSET -8.349810 0.000000 0.000000
							CHANNELS 3 Zrotation Yrotation Xrotation 
							End Site
							{
								OFFSET -4.106464 0.000000 0.000000
							}
						}
					}
				}
			}
		}
	}
	JOINT lThigh
	{
		OFFSET 5.338403 -1.642589 1.368821
		CHANNELS 3 Xrotation Zrotation Yrotation 
		JOINT lShin
		{
			OFFSET -2.053232 -20.121670 0.000000
			CHANNELS 3 Xrotation Zrotation Yrotation 
			JOINT lFoot
			{
				OFFSET 0.000000 -19.300380 -1.231939
				CHANNELS 3 Xrotation Yrotation Zrotation 
				End Site
				{
					OFFSET 0.000000 -2.463878 4.653993
				}
			}
		}
	}
	JOINT rThigh
	{
		OFFSET -5.338403 -1.642589 1.368821
		CHANNELS 3 Xrotation Zrotation Yrotation 
		JOINT rShin
		{
			OFFSET 2.053232 -20.121670 0.000000
			CHANNELS 3 Xrotation Zrotation Yrotation 
			JOINT rFoot
			{
				OFFSET 0.000000 -19.300380 -1.231939
				CHANNELS 3 Xrotation Yrotation Zrotation 
				End Site
				{
					OFFSET 0.000000 -2.463878 4.653993
				}
			}
		}
	}
}
MOTION
Frames: 8
Frame Time: 0.049897
0.249307 4.392788 34.708214 -90.001862 -0.269606 179.747711 -19.478323 -7.564886 14.626087 -9.063481 1.236551 9.945987 1.886047 6.050756 17.769892 -35.620323 0.000000 0.000000 5.268319 13.841731 -26.650276 -94.328438 -52.135208 -12.126224 -88.702881 9.943385 -5.710078 -49.893387 15.529808 -24.292053 -25.255482 6.901311 -19.867771 40.796398 43.366264 -11.761042 90.283234 -23.908306 -6.506883 21.061209 -8.944226 6.852968 -2.003041 7.933866 0.006580 70.566849 3.126785 -2.890918 27.170946 -12.046416 0.659969 -0.021044 -6.124616 -0.032144 93.024757 -5.088673 0.041361 55.349113 -5.821308 -1.688219 
0.249307 4.392788 34.708214 -90.001862 -0.269606 179.747711 -20.164688 -7.741392 15.148600 -8.686673 1.208982 10.284021 1.657901 6.284796 18.328663 -34.965206 0.000000 0.000000 5.123435 13.683563 -26.285036 -96.179375 -52.387447 -11.918034 -88.792244 9.492176 -5.644797 -50.976555 15.202254 -24.590672 -25.923283 7.678937 -19.070520 40.796398 43.366264 -11.761042 90.311470 -23.907534 -6.496741 21.365408 -8.534781 7.469112 -2.003041 7.933865 0.006580 69.878761 3.055392 -2.942036 26.078625 -12.629657 0.408516 -0.021044 -6.124616 -0.032144 93.024757 -5.088673 0.041361 55.312252 -5.811084 -1.687154 
0.249307 4.392788 34.708214 -90.001862 -0.269606 179.747711 -20.851892 -7.911420 15.672632 -8.310245 1.179209 10.621672 1.432181 6.520801 18.886198 -34.310707 0.000000 0.000000 4.979772 13.524598 -25.920671 -98.029831 -52.633781 -11.696892 -88.880920 9.041080 -5.580343 -52.053356 14.870225 -24.881590 -26.600838 8.444540 -18.265484 40.796398 43.366264 -11.761042 90.339706 -23.906761 -6.486598 21.673235 -8.129224 8.085843 -2.003041 7.933865 0.006580 69.191513 2.983468 -2.992237 24.984800 -13.206175 0.146000 -0.021044 -6.124616 -0.032144 93.024757 -5.088673 0.041361 55.275402 -5.800864 -1.686083 
0.249307 4.392788 34.708214 -90.001862 -0.269606 179.747711 -21.539808 -8.074944 16.198050 -7.934228 1.147239 10.958917 1.208911 6.758722 19.442471 -33.656876 0.000000 0.000000 4.837331 13.364842 -25.557167 -99.878883 -52.873894 -11.463174 -88.968925 8.590115 -5.516707 -53.123707 14.533958 -25.164774 -27.288025 9.197782 -17.452730 40.796398 43.366264 -11.761042 90.367928 -23.905979 -6.476459 21.984627 -7.727636 8.703131 -2.003041 7.933865 0.006580 68.505142 2.911029 -3.041510 23.889547 -13.775676 -0.127436 -0.021044 -6.124616 -0.032144 93.024757 -5.088673 0.041361 55.238548 -5.790642 -1.685005 
0.249307 4.392788 34.708214 -90.001862 -0.269606 179.747711 -22.228298 -8.231934 16.724718 -7.558647 1.113079 11.295727 0.988114 6.998512 19.997459 -33.003757 0.000000 0.000000 4.696117 13.204316 -25.194551 -101.725723 -53.107578 -11.217309 -89.056290 8.139297 -5.453876 -54.187450 14.193686 -25.440161 -27.984724 9.938334 -16.632345 40.796398 43.366264 -11.761042 90.396156 -23.905195 -6.466318 22.299520 -7.330098 9.320950 -2.003041 7.933865 0.006580 67.819717 2.838096 -3.089851 22.792942 -14.337863 -0.411641 -0.021044 -6.124616 -0.032144 93.024757 -5.088673 0.041361 55.201683 -5.780421 -1.683920 
0.249307 4.392788 34.708214 -90.001862 -0.269606 179.747711 -22.528185 -8.231884 16.724749 -7.560516 1.112226 11.200965 0.988017 6.998509 21.628103 -32.457115 0.054409 0.596627 4.304921 13.343157 -24.932821 -101.489410 -53.258316 -11.466750 -88.654114 8.181808 -5.486311 -54.144035 14.202012 -25.045181 -27.740051 9.925217 -16.346327 40.796398 43.366264 -11.761042 89.836731 -23.955399 -6.671112 22.282785 -7.030278 9.581975 -2.003041 7.933865 0.006580 67.819717 2.838096 -3.089851 22.792940 -14.337863 -0.411641 -0.021044 -6.124616 -0.032144 93.024757 -5.088673 0.041361 55.164829 -5.770201 -1.682828 
0.249307 4.392788 34.708214 -90.001862 -0.269606 179.747711 -22.828114 -8.231833 16.724781 -7.562384 1.111369 11.106193 0.987919 6.998507 23.264824 -31.909443 0.103163 1.194289 3.912749 13.480294 -24.669912 -101.251175 -53.408443 -11.718122 -88.251778 8.224101 -5.519058 -54.100540 14.210047 -24.650093 -27.495270 9.913301 -16.060196 40.796398 43.366264 -11.761042 89.276680 -24.003792 -6.876592 22.267427 -6.730319 9.842803 -2.003041 7.933865 0.006580 67.819725 2.838096 -3.089851 22.792942 -14.337863 -0.411641 -0.021044 -6.124616 -0.032144 93.024757 -5.088673 0.041361 55.127975 -5.759982 -1.681731 
0.249307 4.392788 34.708214 -90.001862 -0.269606 179.747711 -23.128065 -8.231783 16.724804 -7.564250 1.110510 11.011413 0.987821 6.998509 24.906984 -31.360847 0.146231 1.792872 3.519615 13.615706 -24.405825 -101.010963 -53.557964 -11.971455 -87.849297 8.266176 -5.552117 -54.056988 14.217792 -24.254915 -27.250397 9.902591 -15.773972 40.796398 43.366264 -11.761042 88.716049 -24.050360 -7.082721 22.253456 -6.430239 10.103444 -2.003041 7.933865 0.006580 67.819717 2.838096 -3.089851 22.792942 -14.337863 -0.411641 -0.021044 -6.124616 -0.032144 93.024757 -5.088673 0.041361 55.091122 -5.749763 -1.680626 
